silder_IK.mot
nRows=124
nColumns=4

name silder_IK.mot
datacolumns 4
datarows 124
range 0.000000 10.000000
endheader
time	ankle_angle_r	knee_angle_r	hip_flexion_r
        0.0000000000	       15.0000000000	       15.0000000000	       -0.0000000000	
        0.0813008130	       11.0000000000	       15.0000000000	       -0.0000000000	
        0.1626016260	        7.0000000000	       15.0000000000	       -0.0000000000	
        0.2439024390	        3.0000000000	       15.0000000000	       -0.0000000000	
        0.3252032520	       -1.0000000000	       15.0000000000	       -0.0000000000	
        0.4065040650	       -5.0000000000	       15.0000000000	       -0.0000000000	
        0.4878048780	       -9.0000000000	       15.0000000000	       -0.0000000000	
        0.5691056911	      -13.0000000000	       15.0000000000	       -0.0000000000	
        0.6504065041	      -17.0000000000	       15.0000000000	       -0.0000000000	
        0.7317073171	      -21.0000000000	       15.0000000000	       -0.0000000000	
        0.8130081301	      -25.0000000000	       15.0000000000	       -0.0000000000	
        0.8943089431	      -29.0000000000	       15.0000000000	       -0.0000000000	
        0.9756097561	      -33.0000000000	       15.0000000000	       -0.0000000000	
        1.0569105691	      -37.0000000000	       15.0000000000	       -0.0000000000	
        1.1382113821	       15.0000000000	       60.0000000000	       -0.0000000000	
        1.2195121951	       11.0000000000	       60.0000000000	       -0.0000000000	
        1.3008130081	        7.0000000000	       60.0000000000	       -0.0000000000	
        1.3821138211	        3.0000000000	       60.0000000000	       -0.0000000000	
        1.4634146341	       -1.0000000000	       60.0000000000	       -0.0000000000	
        1.5447154472	       -5.0000000000	       60.0000000000	       -0.0000000000	
        1.6260162602	       -9.0000000000	       60.0000000000	       -0.0000000000	
        1.7073170732	      -13.0000000000	       60.0000000000	       -0.0000000000	
        1.7886178862	      -17.0000000000	       60.0000000000	       -0.0000000000	
        1.8699186992	      -21.0000000000	       60.0000000000	       -0.0000000000	
        1.9512195122	      -25.0000000000	       60.0000000000	       -0.0000000000	
        2.0325203252	      -29.0000000000	       60.0000000000	       -0.0000000000	
        2.1138211382	      -33.0000000000	       60.0000000000	       -0.0000000000	
        2.1951219512	      -37.0000000000	       60.0000000000	       -0.0000000000	
        2.2764227642	       -0.0000000000	       -0.0000000000	      -20.0000000000	
        2.3577235772	       -0.0000000000	        4.0000000000	      -20.0000000000	
        2.4390243902	       -0.0000000000	        8.0000000000	      -20.0000000000	
        2.5203252033	       -0.0000000000	       12.0000000000	      -20.0000000000	
        2.6016260163	       -0.0000000000	       16.0000000000	      -20.0000000000	
        2.6829268293	       -0.0000000000	       20.0000000000	      -20.0000000000	
        2.7642276423	       -0.0000000000	       24.0000000000	      -20.0000000000	
        2.8455284553	       -0.0000000000	       28.0000000000	      -20.0000000000	
        2.9268292683	       -0.0000000000	       32.0000000000	      -20.0000000000	
        3.0081300813	       -0.0000000000	       36.0000000000	      -20.0000000000	
        3.0894308943	       -0.0000000000	       40.0000000000	      -20.0000000000	
        3.1707317073	       -0.0000000000	       44.0000000000	      -20.0000000000	
        3.2520325203	       -0.0000000000	       48.0000000000	      -20.0000000000	
        3.3333333333	       -0.0000000000	       52.0000000000	      -20.0000000000	
        3.4146341463	       -0.0000000000	       56.0000000000	      -20.0000000000	
        3.4959349593	       -0.0000000000	       60.0000000000	      -20.0000000000	
        3.5772357724	       -0.0000000000	       64.0000000000	      -20.0000000000	
        3.6585365854	       -0.0000000000	       68.0000000000	      -20.0000000000	
        3.7398373984	       -0.0000000000	       72.0000000000	      -20.0000000000	
        3.8211382114	       -0.0000000000	        3.0000000000	       15.0000000000	
        3.9024390244	       -0.0000000000	        7.0000000000	       15.0000000000	
        3.9837398374	       -0.0000000000	       11.0000000000	       15.0000000000	
        4.0650406504	       -0.0000000000	       15.0000000000	       15.0000000000	
        4.1463414634	       -0.0000000000	       19.0000000000	       15.0000000000	
        4.2276422764	       -0.0000000000	       23.0000000000	       15.0000000000	
        4.3089430894	       -0.0000000000	       27.0000000000	       15.0000000000	
        4.3902439024	       -0.0000000000	       31.0000000000	       15.0000000000	
        4.4715447154	       -0.0000000000	       35.0000000000	       15.0000000000	
        4.5528455285	       -0.0000000000	       39.0000000000	       15.0000000000	
        4.6341463415	       -0.0000000000	       43.0000000000	       15.0000000000	
        4.7154471545	       -0.0000000000	       47.0000000000	       15.0000000000	
        4.7967479675	       -0.0000000000	       51.0000000000	       15.0000000000	
        4.8780487805	       -0.0000000000	       55.0000000000	       15.0000000000	
        4.9593495935	       -0.0000000000	       59.0000000000	       15.0000000000	
        5.0406504065	       -0.0000000000	       63.0000000000	       15.0000000000	
        5.1219512195	       -0.0000000000	       67.0000000000	       15.0000000000	
        5.2032520325	       -0.0000000000	       71.0000000000	       15.0000000000	
        5.2845528455	       -0.0000000000	       75.0000000000	       15.0000000000	
        5.3658536585	       15.0000000000	        1.0000000000	      -20.0000000000	
        5.4471544715	       15.0000000000	        5.0000000000	      -20.0000000000	
        5.5284552846	       15.0000000000	        9.0000000000	      -20.0000000000	
        5.6097560976	       15.0000000000	       13.0000000000	      -20.0000000000	
        5.6910569106	       15.0000000000	       17.0000000000	      -20.0000000000	
        5.7723577236	       15.0000000000	       21.0000000000	      -20.0000000000	
        5.8536585366	       15.0000000000	       25.0000000000	      -20.0000000000	
        5.9349593496	       15.0000000000	       29.0000000000	      -20.0000000000	
        6.0162601626	       15.0000000000	       33.0000000000	      -20.0000000000	
        6.0975609756	       15.0000000000	       37.0000000000	      -20.0000000000	
        6.1788617886	       15.0000000000	       41.0000000000	      -20.0000000000	
        6.2601626016	       15.0000000000	       45.0000000000	      -20.0000000000	
        6.3414634146	       15.0000000000	       49.0000000000	      -20.0000000000	
        6.4227642276	       15.0000000000	       53.0000000000	      -20.0000000000	
        6.5040650407	       15.0000000000	       57.0000000000	      -20.0000000000	
        6.5853658537	       15.0000000000	       61.0000000000	      -20.0000000000	
        6.6666666667	       15.0000000000	       65.0000000000	      -20.0000000000	
        6.7479674797	       15.0000000000	       69.0000000000	      -20.0000000000	
        6.8292682927	       15.0000000000	       73.0000000000	      -20.0000000000	
        6.9105691057	       -0.0000000000	        0.0000000000	       30.0000000000	
        6.9918699187	       -0.0000000000	        0.0000000000	       26.0000000000	
        7.0731707317	       -0.0000000000	        0.0000000000	       22.0000000000	
        7.1544715447	       -0.0000000000	        0.0000000000	       18.0000000000	
        7.2357723577	       -0.0000000000	        0.0000000000	       14.0000000000	
        7.3170731707	       -0.0000000000	        0.0000000000	       10.0000000000	
        7.3983739837	       -0.0000000000	        0.0000000000	        6.0000000000	
        7.4796747967	       -0.0000000000	        0.0000000000	        2.0000000000	
        7.5609756098	       -0.0000000000	        0.0000000000	       -2.0000000000	
        7.6422764228	       -0.0000000000	        0.0000000000	       -6.0000000000	
        7.7235772358	       -0.0000000000	        0.0000000000	      -10.0000000000	
        7.8048780488	       -0.0000000000	        0.0000000000	      -14.0000000000	
        7.8861788618	       -0.0000000000	        0.0000000000	      -18.0000000000	
        7.9674796748	       -0.0000000000	       15.0000000000	       29.0000000000	
        8.0487804878	       -0.0000000000	       15.0000000000	       25.0000000000	
        8.1300813008	       -0.0000000000	       15.0000000000	       21.0000000000	
        8.2113821138	       -0.0000000000	       15.0000000000	       17.0000000000	
        8.2926829268	       -0.0000000000	       15.0000000000	       13.0000000000	
        8.3739837398	       -0.0000000000	       15.0000000000	        9.0000000000	
        8.4552845528	       -0.0000000000	       15.0000000000	        5.0000000000	
        8.5365853659	       -0.0000000000	       15.0000000000	        1.0000000000	
        8.6178861789	       -0.0000000000	       15.0000000000	       -3.0000000000	
        8.6991869919	       -0.0000000000	       15.0000000000	       -7.0000000000	
        8.7804878049	       -0.0000000000	       15.0000000000	      -11.0000000000	
        8.8617886179	       -0.0000000000	       15.0000000000	      -15.0000000000	
        8.9430894309	       -0.0000000000	       15.0000000000	      -19.0000000000	
        9.0243902439	       -0.0000000000	       60.0000000000	       28.0000000000	
        9.1056910569	       -0.0000000000	       60.0000000000	       24.0000000000	
        9.1869918699	       -0.0000000000	       60.0000000000	       20.0000000000	
        9.2682926829	       -0.0000000000	       60.0000000000	       16.0000000000	
        9.3495934959	       -0.0000000000	       60.0000000000	       12.0000000000	
        9.4308943089	       -0.0000000000	       60.0000000000	        8.0000000000	
        9.5121951220	       -0.0000000000	       60.0000000000	        4.0000000000	
        9.5934959350	       -0.0000000000	       60.0000000000	       -0.0000000000	
        9.6747967480	       -0.0000000000	       60.0000000000	       -4.0000000000	
        9.7560975610	       -0.0000000000	       60.0000000000	       -8.0000000000	
        9.8373983740	       -0.0000000000	       60.0000000000	      -12.0000000000	
        9.9186991870	       -0.0000000000	       60.0000000000	      -16.0000000000	
       10.0000000000	       -0.0000000000	       60.0000000000	      -20.0000000000	
